<svg width="35" height="44" fill="none" xmlns="http://www.w3.org/2000/svg"><g clip-path="url(#clip0)"><path d="M29.777 8.416c-.216-2.8-2.337-5.064-5.08-5.519a6.185 6.185 0 00-1.01-.088 6.138 6.138 0 00-3.255.942 6.099 6.099 0 00-1.68 1.55c-.013.016-.029.032-.04.05C18.68 5.393.724 30.892.724 30.892H15.26c8.014.002 14.513-6.445 14.538-14.407v-3.263l4.926-2.399-4.947-2.408zm-5.383.917a.9.9 0 01-.901-.897c0-.495.403-.896.901-.896s.903.4.903.896a.9.9 0 01-.903.897z" fill="#53AFFF"/></g><defs><clipPath id="clip0"><path fill="#fff" transform="translate(.724)" d="M0 0h34v44H0z"/></clipPath></defs></svg>