<svg width="35" height="44" viewBox="0 0 35 44" fill="none" xmlns="http://www.w3.org/2000/svg">
<g clip-path="url(#clip0)">
<path d="M29.7768 8.41557C29.5606 5.61562 27.4403 3.35216 24.6962 2.89747C24.367 2.84325 24.0322 2.80853 23.6867 2.80853C23.338 2.80853 22.9969 2.8404 22.6639 2.89747C21.8549 3.0354 21.1005 3.33076 20.4317 3.75025C19.7787 4.15976 19.2065 4.68293 18.7525 5.30076C18.7391 5.31741 18.7233 5.33262 18.7118 5.35022C18.6798 5.39445 0.724426 30.8927 0.724426 30.8927C0.759828 30.8927 11.0254 30.8936 15.2602 30.8936C23.2744 30.8946 29.773 24.4476 29.7978 16.4858C29.7978 16.4715 29.7983 16.4568 29.7988 16.4421V13.2231L34.7244 10.8241L29.7768 8.41557ZM24.3943 9.33303C23.8958 9.33303 23.4925 8.93113 23.4925 8.43602C23.4925 7.9409 23.8958 7.54043 24.3943 7.54043C24.8923 7.54043 25.2966 7.9409 25.2966 8.43602C25.2961 8.93113 24.8923 9.33303 24.3943 9.33303Z" fill="#53AFFF"/>
</g>
<defs>
<clipPath id="clip0">
<rect width="34" height="44" fill="white" transform="translate(0.724426)"/>
</clipPath>
</defs>
</svg>
